# xmcd
#
# Track frame offsets:
#  150
#  19061
#  32785
#  59110
#  73360
#  89785
#  109735
#  128635
#  149710
#  171106
#
# Disc length: 2542 seconds
#
# Revision: 0
# Processed by: cddbd v1.5.1PL0 Copyright (c) Steve Scherf et al.
# Submitted via: Collectorz.com Music Collector 6.9
#
DISCID=9e09ec0a
DTITLE=steve earle - The Alternate Copperhead Road
DYEAR=1988
DGENRE=
TTITLE0=Copperhead Road (Alternate Version)
TTITLE1=Snake Oil (Alternate Version)
TTITLE2=Back To The Wall (Alternate Version)
TTITLE3=The Devil's Right Hand (Alternate Version)
TTITLE4=Johnny Come Lately (Alternate Version)
TTITLE5=Even When I'm Blue (Alternate Version)
TTITLE6=You Belong To Me (Alternate Version)
TTITLE7=Waiting On You (Alternate Version)
TTITLE8=Onc You Love Me (Alternate Version)
TTITLE9=Nothing But A Child (Alternate Version)
EXTD=
EXTT0=
EXTT1=
EXTT2=
EXTT3=
EXTT4=
EXTT5=
EXTT6=
EXTT7=
EXTT8=
EXTT9=
PLAYORDER=
